<svg width="26" height="26" viewBox="0 0 26 26" fill="none" xmlns="http://www.w3.org/2000/svg">
<g clip-path="url(#clip0_495_50)">
<path d="M12 24C18.6274 24 24 18.6274 24 12C24 5.37258 18.6274 0 12 0C5.37258 0 0 5.37258 0 12C0 18.6274 5.37258 24 12 24Z" fill="#F3BA2F"/>
<path d="M9.087 10.803L12 7.89L14.9145 10.8045L16.6095 9.1095L12 4.5L7.392 9.108L9.087 10.803ZM4.5 12L6.195 10.305L7.89 12L6.195 13.695L4.5 12ZM9.087 13.197L12 16.11L14.9145 13.1955L16.6095 14.8898L12 19.5L7.392 14.892L7.38975 14.8898L9.087 13.197ZM16.11 12L17.805 10.305L19.5 12L17.805 13.695L16.11 12ZM13.719 11.9985H13.7205V12L12 13.7205L10.2817 12.003L10.2787 12L10.2817 11.9977L10.5825 11.6962L10.7288 11.55L12 10.2795L13.719 11.9985Z" fill="white"/>
</g>
<g clip-path="url(#clip1_495_50)">
<path d="M20 26C23.3137 26 26 23.3137 26 20C26 16.6863 23.3137 14 20 14C16.6863 14 14 16.6863 14 20C14 23.3137 16.6863 26 20 26Z" fill="#F3BA2F"/>
<path d="M18.5435 19.4015L20 17.945L21.4572 19.4023L22.3047 18.5547L20 16.25L17.696 18.554L18.5435 19.4015ZM16.25 20L17.0975 19.1525L17.945 20L17.0975 20.8475L16.25 20ZM18.5435 20.5985L20 22.055L21.4572 20.5977L22.3047 21.4449L20 23.75L17.696 21.446L17.6949 21.4449L18.5435 20.5985ZM22.055 20L22.9025 19.1525L23.75 20L22.9025 20.8475L22.055 20ZM20.8595 19.9992H20.8603V20L20 20.8603L19.1409 20.0015L19.1394 20L19.1409 19.9989L19.2912 19.8481L19.3644 19.775L20 19.1398L20.8595 19.9992Z" fill="white"/>
</g>
<defs>
<clipPath id="clip0_495_50">
<rect width="24" height="24" fill="white"/>
</clipPath>
<clipPath id="clip1_495_50">
<rect width="12" height="12" fill="white" transform="translate(14 14)"/>
</clipPath>
</defs>
</svg>
