<svg width="120" height="54" viewBox="0 0 120 54" fill="none" xmlns="http://www.w3.org/2000/svg">
<rect width="120" height="44" rx="10.2258" fill="#352B3B"/>
<path d="M58.8769 51.9331C59.3608 52.8237 60.6392 52.8237 61.1231 51.9331L65.902 43.1385C66.3648 42.2868 65.7482 41.25 64.7789 41.25H55.2211C54.2518 41.25 53.6352 42.2868 54.098 43.1385L58.8769 51.9331Z" fill="#352B3B"/>
<path d="M21.5437 29V15.9091H23.5188V21.598H30.0451V15.9091H32.0266V29H30.0451V23.2919H23.5188V29H21.5437ZM37.6069 29.2173C36.9847 29.2173 36.4222 29.1023 35.9194 28.8722C35.4165 28.6378 35.0181 28.299 34.7241 27.8558C34.4343 27.4126 34.2894 26.8693 34.2894 26.2259C34.2894 25.6719 34.396 25.2159 34.609 24.858C34.8221 24.5 35.1097 24.2166 35.4719 24.0078C35.8342 23.799 36.239 23.6413 36.6864 23.5348C37.1339 23.4283 37.5898 23.3473 38.0543 23.2919C38.6424 23.2237 39.1197 23.1683 39.4862 23.1257C39.8526 23.0788 40.119 23.0043 40.2852 22.902C40.4513 22.7997 40.5344 22.6335 40.5344 22.4034V22.3587C40.5344 21.8004 40.3768 21.3679 40.0614 21.0611C39.7504 20.7543 39.2859 20.6009 38.668 20.6009C38.0245 20.6009 37.5174 20.7436 37.1467 21.0291C36.7802 21.3104 36.5266 21.6236 36.386 21.9688L34.5898 21.5597C34.8029 20.9631 35.114 20.4815 35.5231 20.1151C35.9364 19.7443 36.4116 19.4759 36.9485 19.3097C37.4854 19.1392 38.0501 19.054 38.6424 19.054C39.0344 19.054 39.4499 19.1009 39.8888 19.1946C40.332 19.2841 40.7454 19.4503 41.1289 19.6932C41.5167 19.9361 41.8342 20.2834 42.0813 20.7351C42.3285 21.1825 42.4521 21.7642 42.4521 22.4801V29H40.5856V27.6577H40.5089C40.3853 27.9048 40.1999 28.1477 39.9528 28.3864C39.7056 28.625 39.3881 28.8232 39.0004 28.9808C38.6126 29.1385 38.1481 29.2173 37.6069 29.2173ZM38.0224 27.6832C38.5508 27.6832 39.0025 27.5788 39.3775 27.37C39.7567 27.1612 40.0444 26.8885 40.2404 26.5518C40.4407 26.2109 40.5408 25.8466 40.5408 25.4588V24.1932C40.4727 24.2614 40.3406 24.3253 40.1445 24.3849C39.9528 24.4403 39.7333 24.4893 39.4862 24.532C39.239 24.5703 38.9982 24.6065 38.7638 24.6406C38.5295 24.6705 38.3335 24.696 38.1758 24.7173C37.805 24.7642 37.4663 24.843 37.1594 24.9538C36.8569 25.0646 36.614 25.2244 36.4308 25.4332C36.2518 25.6378 36.1623 25.9105 36.1623 26.2514C36.1623 26.7244 36.337 27.0824 36.6864 27.3253C37.0359 27.5639 37.4812 27.6832 38.0224 27.6832ZM44.9977 29V19.1818H46.845V20.7415H46.9473C47.1262 20.2131 47.4416 19.7976 47.8933 19.495C48.3493 19.1882 48.8649 19.0348 49.4402 19.0348C49.5595 19.0348 49.7001 19.0391 49.862 19.0476C50.0282 19.0561 50.1582 19.0668 50.252 19.0795V20.9077C50.1752 20.8864 50.0389 20.8629 49.8429 20.8374C49.6468 20.8075 49.4508 20.7926 49.2548 20.7926C48.8031 20.7926 48.4004 20.8885 48.0467 21.0803C47.6973 21.2678 47.4203 21.5298 47.2157 21.8665C47.0112 22.1989 46.9089 22.5781 46.9089 23.0043V29H44.9977ZM55.2298 29.1918C54.4371 29.1918 53.7298 28.9893 53.1076 28.5845C52.4897 28.1754 52.0039 27.5937 51.6502 26.8395C51.3008 26.081 51.1261 25.1712 51.1261 24.1101C51.1261 23.049 51.3029 22.1413 51.6566 21.3871C52.0146 20.6328 52.5046 20.0554 53.1268 19.6548C53.7489 19.2543 54.4542 19.054 55.2425 19.054C55.8519 19.054 56.342 19.1562 56.7127 19.3608C57.0877 19.5611 57.3775 19.7955 57.582 20.0639C57.7908 20.3324 57.9528 20.5689 58.0678 20.7734H58.1829V15.9091H60.0941V29H58.2276V27.4723H58.0678C57.9528 27.6811 57.7866 27.9197 57.5692 28.1882C57.3562 28.4567 57.0621 28.6911 56.6871 28.8913C56.3121 29.0916 55.8263 29.1918 55.2298 29.1918ZM55.6516 27.5618C56.2013 27.5618 56.6658 27.4169 57.0451 27.1271C57.4286 26.8331 57.7184 26.4261 57.9144 25.9062C58.1147 25.3864 58.2148 24.7812 58.2148 24.0909C58.2148 23.4091 58.1168 22.8125 57.9208 22.3011C57.7248 21.7898 57.4371 21.3913 57.0579 21.1058C56.6786 20.8203 56.2099 20.6776 55.6516 20.6776C55.0763 20.6776 54.5969 20.8267 54.2134 21.125C53.8299 21.4233 53.5401 21.8303 53.3441 22.3459C53.1523 22.8615 53.0565 23.4432 53.0565 24.0909C53.0565 24.7472 53.1545 25.3374 53.3505 25.8615C53.5465 26.3857 53.8363 26.8011 54.2198 27.108C54.6076 27.4105 55.0849 27.5618 55.6516 27.5618ZM78.6119 20.1662H76.6175C76.5408 19.7401 76.3981 19.3651 76.1893 19.0412C75.9805 18.7173 75.7248 18.4425 75.4222 18.2166C75.1197 17.9908 74.7809 17.8203 74.4059 17.7053C74.0352 17.5902 73.641 17.5327 73.2234 17.5327C72.4691 17.5327 71.7937 17.7223 71.1971 18.1016C70.6048 18.4808 70.136 19.0369 69.7908 19.7699C69.4499 20.5028 69.2795 21.3977 69.2795 22.4545C69.2795 23.5199 69.4499 24.419 69.7908 25.152C70.136 25.8849 70.6069 26.4389 71.2035 26.8139C71.8001 27.1889 72.4712 27.3764 73.217 27.3764C73.6303 27.3764 74.0224 27.321 74.3931 27.2102C74.7681 27.0952 75.1069 26.9268 75.4094 26.7053C75.712 26.4837 75.9677 26.2131 76.1765 25.8935C76.3896 25.5696 76.5366 25.1989 76.6175 24.7812L78.6119 24.7876C78.5053 25.4311 78.2987 26.0234 77.9918 26.5646C77.6893 27.1016 77.2994 27.5661 76.8221 27.9581C76.3491 28.3459 75.8079 28.6463 75.1985 28.8594C74.5891 29.0724 73.9244 29.179 73.2042 29.179C72.0707 29.179 71.0607 28.9105 70.1744 28.3736C69.288 27.8324 68.5891 27.0589 68.0778 26.0533C67.5707 25.0476 67.3171 23.848 67.3171 22.4545C67.3171 21.0568 67.5728 19.8572 68.0842 18.8558C68.5955 17.8501 69.2944 17.0788 70.1808 16.5419C71.0671 16.0007 72.0749 15.7301 73.2042 15.7301C73.8988 15.7301 74.5465 15.8303 75.1474 16.0305C75.7525 16.2266 76.2958 16.5163 76.7773 16.8999C77.2589 17.2791 77.6573 17.7436 77.9727 18.2933C78.288 18.8388 78.5011 19.4631 78.6119 20.1662ZM83.6792 29.2173C83.057 29.2173 82.4945 29.1023 81.9917 28.8722C81.4888 28.6378 81.0904 28.299 80.7963 27.8558C80.5066 27.4126 80.3617 26.8693 80.3617 26.2259C80.3617 25.6719 80.4682 25.2159 80.6813 24.858C80.8944 24.5 81.182 24.2166 81.5442 24.0078C81.9064 23.799 82.3113 23.6413 82.7587 23.5348C83.2061 23.4283 83.6621 23.3473 84.1266 23.2919C84.7147 23.2237 85.1919 23.1683 85.5584 23.1257C85.9249 23.0788 86.1912 23.0043 86.3574 22.902C86.5236 22.7997 86.6067 22.6335 86.6067 22.4034V22.3587C86.6067 21.8004 86.449 21.3679 86.1337 21.0611C85.8226 20.7543 85.3581 20.6009 84.7402 20.6009C84.0968 20.6009 83.5897 20.7436 83.2189 21.0291C82.8525 21.3104 82.5989 21.6236 82.4583 21.9688L80.6621 21.5597C80.8752 20.9631 81.1863 20.4815 81.5953 20.1151C82.0087 19.7443 82.4838 19.4759 83.0208 19.3097C83.5577 19.1392 84.1223 19.054 84.7147 19.054C85.1067 19.054 85.5222 19.1009 85.9611 19.1946C86.4043 19.2841 86.8176 19.4503 87.2012 19.6932C87.589 19.9361 87.9064 20.2834 88.1536 20.7351C88.4007 21.1825 88.5243 21.7642 88.5243 22.4801V29H86.6578V27.6577H86.5811C86.4576 27.9048 86.2722 28.1477 86.025 28.3864C85.7779 28.625 85.4604 28.8232 85.0726 28.9808C84.6848 29.1385 84.2203 29.2173 83.6792 29.2173ZM84.0946 27.6832C84.623 27.6832 85.0748 27.5788 85.4498 27.37C85.829 27.1612 86.1167 26.8885 86.3127 26.5518C86.513 26.2109 86.6131 25.8466 86.6131 25.4588V24.1932C86.5449 24.2614 86.4128 24.3253 86.2168 24.3849C86.025 24.4403 85.8056 24.4893 85.5584 24.532C85.3113 24.5703 85.0705 24.6065 84.8361 24.6406C84.6017 24.6705 84.4057 24.696 84.248 24.7173C83.8773 24.7642 83.5385 24.843 83.2317 24.9538C82.9292 25.0646 82.6863 25.2244 82.503 25.4332C82.324 25.6378 82.2346 25.9105 82.2346 26.2514C82.2346 26.7244 82.4093 27.0824 82.7587 27.3253C83.1081 27.5639 83.5534 27.6832 84.0946 27.6832ZM91.07 32.6818V19.1818H92.9364V20.7734H93.0962C93.207 20.5689 93.3668 20.3324 93.5756 20.0639C93.7844 19.7955 94.0742 19.5611 94.445 19.3608C94.8157 19.1562 95.3058 19.054 95.9151 19.054C96.7077 19.054 97.4151 19.2543 98.0373 19.6548C98.6594 20.0554 99.1474 20.6328 99.5011 21.3871C99.859 22.1413 100.038 23.049 100.038 24.1101C100.038 25.1712 99.8612 26.081 99.5075 26.8395C99.1538 27.5937 98.668 28.1754 98.0501 28.5845C97.4322 28.9893 96.7269 29.1918 95.9343 29.1918C95.3377 29.1918 94.8498 29.0916 94.4705 28.8913C94.0955 28.6911 93.8015 28.4567 93.5884 28.1882C93.3754 27.9197 93.2113 27.6811 93.0962 27.4723H92.9812V32.6818H91.07ZM92.9428 24.0909C92.9428 24.7812 93.043 25.3864 93.2433 25.9062C93.4435 26.4261 93.7333 26.8331 94.1126 27.1271C94.4918 27.4169 94.9563 27.5618 95.506 27.5618C96.0771 27.5618 96.5543 27.4105 96.9379 27.108C97.3214 26.8011 97.6112 26.3857 97.8072 25.8615C98.0075 25.3374 98.1076 24.7472 98.1076 24.0909C98.1076 23.4432 98.0096 22.8615 97.8136 22.3459C97.6218 21.8303 97.332 21.4233 96.9442 21.125C96.5607 20.8267 96.0813 20.6776 95.506 20.6776C94.9521 20.6776 94.4833 20.8203 94.0998 21.1058C93.7205 21.3913 93.4329 21.7898 93.2369 22.3011C93.0408 22.8125 92.9428 23.4091 92.9428 24.0909Z" fill="white"/>
</svg>
