<svg width="120" height="54" viewBox="0 0 120 54" fill="none" xmlns="http://www.w3.org/2000/svg">
<rect width="120" height="44" rx="10.2258" fill="#352B3B"/>
<path d="M58.8769 51.9331C59.3608 52.8237 60.6392 52.8237 61.1231 51.9331L65.902 43.1385C66.3648 42.2868 65.7482 41.25 64.7789 41.25H55.2211C54.2518 41.25 53.6352 42.2868 54.098 43.1385L58.8769 51.9331Z" fill="#352B3B"/>
<path d="M34.96 18.348C34.8918 17.7429 34.6105 17.2741 34.1162 16.9418C33.6219 16.6051 32.9997 16.4368 32.2497 16.4368C31.7128 16.4368 31.2483 16.522 30.8563 16.6925C30.4642 16.8587 30.1595 17.0888 29.9422 17.3828C29.7291 17.6726 29.6226 18.0028 29.6226 18.3736C29.6226 18.6847 29.695 18.9531 29.8399 19.179C29.9891 19.4048 30.183 19.5945 30.4216 19.7479C30.6645 19.897 30.9244 20.0227 31.2014 20.125C31.4784 20.223 31.7448 20.304 32.0004 20.3679L33.2789 20.7003C33.6965 20.8026 34.1247 20.9411 34.5637 21.1158C35.0026 21.2905 35.4095 21.5206 35.7845 21.8061C36.1595 22.0916 36.4621 22.4453 36.6922 22.8672C36.9266 23.2891 37.0438 23.794 37.0438 24.3821C37.0438 25.1236 36.852 25.782 36.4685 26.3572C36.0892 26.9325 35.5374 27.3864 34.8129 27.7188C34.0928 28.0511 33.2213 28.2173 32.1986 28.2173C31.2185 28.2173 30.3705 28.0618 29.6546 27.7507C28.9387 27.4396 28.3783 26.9986 27.9735 26.4276C27.5686 25.8523 27.3449 25.1705 27.3023 24.3821H29.2838C29.3222 24.8551 29.4756 25.2493 29.7441 25.5646C30.0168 25.8757 30.3641 26.108 30.786 26.2614C31.2121 26.4105 31.6787 26.4851 32.1858 26.4851C32.7441 26.4851 33.2405 26.3977 33.6752 26.223C34.1141 26.044 34.4593 25.7969 34.7107 25.4815C34.9621 25.1619 35.0878 24.7891 35.0878 24.3629C35.0878 23.9751 34.977 23.6577 34.7554 23.4105C34.5381 23.1634 34.2419 22.9588 33.8669 22.7969C33.4962 22.6349 33.0764 22.4922 32.6077 22.3686L31.0608 21.9467C30.0125 21.6612 29.1816 21.2415 28.5679 20.6875C27.9585 20.1335 27.6539 19.4006 27.6539 18.4886C27.6539 17.7344 27.8584 17.076 28.2675 16.5135C28.6766 15.951 29.2306 15.5142 29.9294 15.2031C30.6283 14.8878 31.4166 14.7301 32.2945 14.7301C33.1808 14.7301 33.9628 14.8857 34.6404 15.1967C35.3222 15.5078 35.8591 15.9361 36.2512 16.4815C36.6432 17.0227 36.8477 17.6449 36.8648 18.348H34.96ZM43.3863 28.1982C42.4658 28.1982 41.6626 27.9872 40.9765 27.5653C40.2904 27.1435 39.7577 26.5533 39.3785 25.7947C38.9992 25.0362 38.8096 24.1499 38.8096 23.1357C38.8096 22.1172 38.9992 21.2266 39.3785 20.4638C39.7577 19.701 40.2904 19.1087 40.9765 18.6868C41.6626 18.2649 42.4658 18.054 43.3863 18.054C44.3067 18.054 45.11 18.2649 45.7961 18.6868C46.4822 19.1087 47.0148 19.701 47.3941 20.4638C47.7733 21.2266 47.963 22.1172 47.963 23.1357C47.963 24.1499 47.7733 25.0362 47.3941 25.7947C47.0148 26.5533 46.4822 27.1435 45.7961 27.5653C45.11 27.9872 44.3067 28.1982 43.3863 28.1982ZM43.3927 26.5938C43.9893 26.5938 44.4836 26.4361 44.8756 26.1207C45.2677 25.8054 45.5574 25.3857 45.7449 24.8615C45.9367 24.3374 46.0326 23.7599 46.0326 23.1293C46.0326 22.5028 45.9367 21.9276 45.7449 21.4034C45.5574 20.875 45.2677 20.451 44.8756 20.1314C44.4836 19.8118 43.9893 19.652 43.3927 19.652C42.7918 19.652 42.2932 19.8118 41.8969 20.1314C41.5049 20.451 41.213 20.875 41.0212 21.4034C40.8337 21.9276 40.74 22.5028 40.74 23.1293C40.74 23.7599 40.8337 24.3374 41.0212 24.8615C41.213 25.3857 41.5049 25.8054 41.8969 26.1207C42.2932 26.4361 42.7918 26.5938 43.3927 26.5938ZM54.7689 18.1818V19.7159H49.2206V18.1818H54.7689ZM50.7419 28V17.044C50.7419 16.4304 50.8762 15.9212 51.1446 15.5163C51.4131 15.1072 51.7689 14.8026 52.2121 14.6023C52.6553 14.3977 53.1368 14.2955 53.6567 14.2955C54.0402 14.2955 54.3683 14.3274 54.6411 14.3913C54.9138 14.451 55.1162 14.5064 55.2483 14.5575L54.8009 16.1044C54.7114 16.0788 54.5963 16.049 54.4557 16.0149C54.3151 15.9766 54.1446 15.9574 53.9443 15.9574C53.4798 15.9574 53.1475 16.0724 52.9472 16.3026C52.7512 16.5327 52.6531 16.8651 52.6531 17.2997V28H50.7419ZM61.324 18.1818V19.7159H55.961V18.1818H61.324ZM57.3992 15.8295H59.3105V25.1172C59.3105 25.4879 59.3659 25.767 59.4767 25.9545C59.5874 26.1378 59.7302 26.2635 59.9049 26.3317C60.0839 26.3956 60.2778 26.4276 60.4866 26.4276C60.64 26.4276 60.7742 26.4169 60.8893 26.3956C61.0044 26.3743 61.0938 26.3572 61.1578 26.3445L61.5029 27.9233C61.3921 27.9659 61.2345 28.0085 61.0299 28.0511C60.8254 28.098 60.5697 28.1236 60.2629 28.1278C59.76 28.1364 59.2913 28.0469 58.8566 27.8594C58.422 27.6719 58.0704 27.3821 57.8019 26.9901C57.5335 26.598 57.3992 26.1058 57.3992 25.5135V15.8295ZM67.4683 28.1982C66.518 28.1982 65.6998 27.983 65.0138 27.5526C64.3319 27.1179 63.8078 26.5192 63.4413 25.7564C63.0748 24.9936 62.8916 24.12 62.8916 23.1357C62.8916 22.1385 63.0791 21.2585 63.4541 20.4957C63.8291 19.7287 64.3575 19.13 65.0393 18.6996C65.7211 18.2692 66.5244 18.054 67.4491 18.054C68.1949 18.054 68.8596 18.1925 69.4434 18.4695C70.0273 18.7422 70.4981 19.1257 70.8561 19.62C71.2183 20.1143 71.4335 20.6918 71.5017 21.3523H69.6416C69.5393 20.892 69.305 20.4957 68.9385 20.1634C68.5763 19.831 68.0905 19.6648 67.4811 19.6648C66.9484 19.6648 66.4818 19.8054 66.0812 20.0866C65.6849 20.3636 65.376 20.7599 65.1544 21.2756C64.9328 21.7869 64.822 22.392 64.822 23.0909C64.822 23.8068 64.9307 24.4247 65.148 24.9446C65.3653 25.4645 65.6721 25.8672 66.0684 26.1527C66.469 26.4382 66.9399 26.581 67.4811 26.581C67.8433 26.581 68.1714 26.5149 68.4655 26.3828C68.7638 26.2464 69.0131 26.0526 69.2133 25.8011C69.4179 25.5497 69.5606 25.2472 69.6416 24.8935H71.5017C71.4335 25.5284 71.2268 26.0952 70.8817 26.5938C70.5365 27.0923 70.0741 27.4844 69.4946 27.7699C68.9193 28.0554 68.2439 28.1982 67.4683 28.1982ZM76.4028 28.2173C75.7806 28.2173 75.2181 28.1023 74.7153 27.8722C74.2124 27.6378 73.814 27.299 73.52 26.8558C73.2302 26.4126 73.0853 25.8693 73.0853 25.2259C73.0853 24.6719 73.1919 24.2159 73.4049 23.858C73.618 23.5 73.9056 23.2166 74.2678 23.0078C74.6301 22.799 75.0349 22.6413 75.4823 22.5348C75.9298 22.4283 76.3857 22.3473 76.8502 22.2919C77.4383 22.2237 77.9156 22.1683 78.282 22.1257C78.6485 22.0788 78.9149 22.0043 79.0811 21.902C79.2472 21.7997 79.3303 21.6335 79.3303 21.4034V21.3587C79.3303 20.8004 79.1727 20.3679 78.8573 20.0611C78.5463 19.7543 78.0818 19.6009 77.4639 19.6009C76.8204 19.6009 76.3133 19.7436 75.9426 20.0291C75.5761 20.3104 75.3225 20.6236 75.1819 20.9688L73.3857 20.5597C73.5988 19.9631 73.9099 19.4815 74.319 19.1151C74.7323 18.7443 75.2075 18.4759 75.7444 18.3097C76.2813 18.1392 76.846 18.054 77.4383 18.054C77.8303 18.054 78.2458 18.1009 78.6847 18.1946C79.1279 18.2841 79.5413 18.4503 79.9248 18.6932C80.3126 18.9361 80.6301 19.2834 80.8772 19.7351C81.1244 20.1825 81.248 20.7642 81.248 21.4801V28H79.3815V26.6577H79.3048C79.1812 26.9048 78.9958 27.1477 78.7487 27.3864C78.5015 27.625 78.184 27.8232 77.7963 27.9808C77.4085 28.1385 76.944 28.2173 76.4028 28.2173ZM76.8183 26.6832C77.3467 26.6832 77.7984 26.5788 78.1734 26.37C78.5526 26.1612 78.8403 25.8885 79.0363 25.5518C79.2366 25.2109 79.3367 24.8466 79.3367 24.4588V23.1932C79.2686 23.2614 79.1365 23.3253 78.9404 23.3849C78.7487 23.4403 78.5292 23.4893 78.282 23.532C78.0349 23.5703 77.7941 23.6065 77.5597 23.6406C77.3254 23.6705 77.1294 23.696 76.9717 23.7173C76.6009 23.7642 76.2622 23.843 75.9553 23.9538C75.6528 24.0646 75.4099 24.2244 75.2267 24.4332C75.0477 24.6378 74.9582 24.9105 74.9582 25.2514C74.9582 25.7244 75.1329 26.0824 75.4823 26.3253C75.8318 26.5639 76.2771 26.6832 76.8183 26.6832ZM83.7936 31.6818V18.1818H85.6601V19.7734H85.8199C85.9307 19.5689 86.0905 19.3324 86.2993 19.0639C86.5081 18.7955 86.7979 18.5611 87.1686 18.3608C87.5393 18.1562 88.0294 18.054 88.6388 18.054C89.4314 18.054 90.1388 18.2543 90.7609 18.6548C91.3831 19.0554 91.871 19.6328 92.2247 20.3871C92.5827 21.1413 92.7616 22.049 92.7616 23.1101C92.7616 24.1712 92.5848 25.081 92.2311 25.8395C91.8774 26.5937 91.3916 27.1754 90.7737 27.5845C90.1558 27.9893 89.4506 28.1918 88.6579 28.1918C88.0613 28.1918 87.5734 28.0916 87.1942 27.8913C86.8192 27.6911 86.5251 27.4567 86.3121 27.1882C86.099 26.9197 85.9349 26.6811 85.8199 26.4723H85.7048V31.6818H83.7936ZM85.6665 23.0909C85.6665 23.7812 85.7666 24.3864 85.9669 24.9062C86.1672 25.4261 86.4569 25.8331 86.8362 26.1271C87.2155 26.4169 87.68 26.5618 88.2297 26.5618C88.8007 26.5618 89.278 26.4105 89.6615 26.108C90.045 25.8011 90.3348 25.3857 90.5308 24.8615C90.7311 24.3374 90.8312 23.7472 90.8312 23.0909C90.8312 22.4432 90.7332 21.8615 90.5372 21.3459C90.3454 20.8303 90.0557 20.4233 89.6679 20.125C89.2844 19.8267 88.805 19.6776 88.2297 19.6776C87.6757 19.6776 87.2069 19.8203 86.8234 20.1058C86.4442 20.3913 86.1565 20.7898 85.9605 21.3011C85.7645 21.8125 85.6665 22.4091 85.6665 23.0909Z" fill="white"/>
</svg>
