<svg width="27" height="26" viewBox="0 0 27 26" fill="none" xmlns="http://www.w3.org/2000/svg">
<path d="M12 24C18.6274 24 24 18.6274 24 12C24 5.37258 18.6274 0 12 0C5.37258 0 0 5.37258 0 12C0 18.6274 5.37258 24 12 24Z" fill="#3E73C4"/>
<path d="M15.0162 13.5929C15.0162 11.9999 14.0562 11.4539 12.1362 11.2259C10.7652 11.0437 10.4914 10.6799 10.4914 10.0424C10.4914 9.40494 10.9489 8.99544 11.8624 8.99544C12.6852 8.99544 13.1427 9.26844 13.3707 9.95169C13.3946 10.0176 13.4381 10.0747 13.4953 10.1153C13.5525 10.1559 13.6208 10.1781 13.6909 10.1789H14.4222C14.4644 10.1801 14.5064 10.1726 14.5457 10.157C14.585 10.1414 14.6207 10.118 14.6506 10.0882C14.6805 10.0584 14.7041 10.0228 14.7199 9.98361C14.7357 9.94442 14.7434 9.90243 14.7424 9.86019V9.81519C14.6531 9.32087 14.4029 8.86989 14.0309 8.53233C13.6589 8.19477 13.1858 7.98951 12.6852 7.94844V6.85644C12.6852 6.67419 12.5479 6.53769 12.3199 6.49194H11.6337C11.4514 6.49194 11.3142 6.62844 11.2684 6.85644V7.90344C9.89668 8.08494 9.02893 8.99544 9.02893 10.1339C9.02893 11.6354 9.94243 12.2272 11.8624 12.4552C13.1427 12.6824 13.5537 12.9562 13.5537 13.6844C13.5537 14.4119 12.9139 14.9129 12.0454 14.9129C10.8567 14.9129 10.4457 14.4127 10.3084 13.7294C10.2634 13.5479 10.1254 13.4564 9.98818 13.4564H9.21118C9.169 13.4554 9.12706 13.463 9.08788 13.4786C9.04871 13.4943 9.01311 13.5177 8.98324 13.5475C8.95338 13.5773 8.92987 13.6128 8.91413 13.652C8.89839 13.6911 8.89075 13.733 8.89168 13.7752V13.8202C9.07393 14.9587 9.80593 15.7777 11.3142 16.0057V17.0984C11.3142 17.2799 11.4514 17.4172 11.6794 17.4622H12.3657C12.5479 17.4622 12.6852 17.3257 12.7309 17.0984V16.0049C14.1027 15.7777 15.0162 14.8214 15.0162 13.5922V13.5929Z" fill="white"/>
<path d="M9.66897 18.3727C6.10347 17.0977 4.27497 13.1377 5.60097 9.633C6.28647 7.7205 7.79472 6.26475 9.66897 5.5815C9.85197 5.49075 9.94272 5.35425 9.94272 5.12625V4.48875C9.94272 4.30725 9.85197 4.17075 9.66897 4.125C9.62322 4.125 9.53172 4.125 9.48597 4.17C8.45729 4.49124 7.50232 5.0128 6.67604 5.70463C5.84976 6.39646 5.16849 7.24491 4.67145 8.20112C4.17442 9.15733 3.87145 10.2024 3.77998 11.2762C3.6885 12.35 3.81034 13.4312 4.13847 14.4578C4.96047 17.0078 6.92622 18.9653 9.48597 19.7843C9.66897 19.875 9.85197 19.7842 9.89697 19.602C9.94272 19.557 9.94272 19.5105 9.94272 19.4198V18.7822C9.94272 18.6457 9.80622 18.4642 9.66897 18.3727ZM14.514 4.17075C14.331 4.07925 14.148 4.17075 14.103 4.35225C14.0572 4.398 14.0572 4.44375 14.0572 4.5345V5.172C14.0572 5.35425 14.1937 5.53575 14.331 5.62725C17.8965 6.90225 19.725 10.8623 18.399 14.367C17.7135 16.2795 16.2052 17.7353 14.331 18.4185C14.148 18.5093 14.0572 18.6458 14.0572 18.8738V19.5112C14.0572 19.6927 14.148 19.8293 14.331 19.875C14.3767 19.875 14.4682 19.875 14.514 19.83C15.5426 19.5088 16.4976 18.9872 17.3239 18.2954C18.1502 17.6035 18.8315 16.7551 19.3285 15.7989C19.8255 14.8427 20.1285 13.7976 20.22 12.7238C20.3114 11.65 20.1896 10.5688 19.8615 9.54225C19.0395 6.94725 17.028 4.98975 14.514 4.17075Z" fill="white"/>
<g clip-path="url(#clip0_495_52)">
<path d="M21 26C24.3137 26 27 23.3137 27 20C27 16.6863 24.3137 14 21 14C17.6863 14 15 16.6863 15 20C15 23.3137 17.6863 26 21 26Z" fill="#F3BA2F"/>
<path d="M19.5435 19.4015L21 17.945L22.4572 19.4023L23.3047 18.5547L21 16.25L18.696 18.554L19.5435 19.4015ZM17.25 20L18.0975 19.1525L18.945 20L18.0975 20.8475L17.25 20ZM19.5435 20.5985L21 22.055L22.4572 20.5977L23.3047 21.4449L21 23.75L18.696 21.446L18.6949 21.4449L19.5435 20.5985ZM23.055 20L23.9025 19.1525L24.75 20L23.9025 20.8475L23.055 20ZM21.8595 19.9992H21.8603V20L21 20.8603L20.1409 20.0015L20.1394 20L20.1409 19.9989L20.2912 19.8481L20.3644 19.775L21 19.1398L21.8595 19.9992Z" fill="white"/>
</g>
<defs>
<clipPath id="clip0_495_52">
<rect width="12" height="12" fill="white" transform="translate(15 14)"/>
</clipPath>
</defs>
</svg>
