<svg width="27" height="26" viewBox="0 0 27 26" fill="none" xmlns="http://www.w3.org/2000/svg">
<g clip-path="url(#clip0_495_51)">
<path d="M12 24C18.6274 24 24 18.6274 24 12C24 5.37258 18.6274 0 12 0C5.37258 0 0 5.37258 0 12C0 18.6274 5.37258 24 12 24Z" fill="#26A17B"/>
<path fill-rule="evenodd" clip-rule="evenodd" d="M13.4416 13.0373V13.0358C13.3591 13.0418 12.9338 13.0673 11.9851 13.0673C11.2276 13.0673 10.6943 13.0448 10.5068 13.0358V13.038C7.59085 12.9098 5.41435 12.402 5.41435 11.7945C5.41435 11.187 7.59085 10.68 10.5068 10.5495V12.5325C10.6973 12.546 11.2433 12.5783 11.9978 12.5783C12.9031 12.5783 13.3568 12.5408 13.4416 12.5333V10.551C16.3516 10.6808 18.5228 11.1885 18.5228 11.7945C18.5228 12.402 16.3516 12.9083 13.4416 13.0373ZM13.4416 10.3448V8.57026H17.5021V5.86426H6.44635V8.57026H10.5068V10.344C7.20685 10.4955 4.7251 11.1495 4.7251 11.9325C4.7251 12.7155 7.20685 13.3688 10.5068 13.521V19.2075H13.4416V13.5195C16.7363 13.368 19.2121 12.7148 19.2121 11.9325C19.2121 11.1503 16.7363 10.497 13.4416 10.3448Z" fill="white"/>
</g>
<g clip-path="url(#clip1_495_51)">
<path d="M21 26C24.3137 26 27 23.3137 27 20C27 16.6863 24.3137 14 21 14C17.6863 14 15 16.6863 15 20C15 23.3137 17.6863 26 21 26Z" fill="#F3BA2F"/>
<path d="M19.5435 19.4015L21 17.945L22.4572 19.4023L23.3047 18.5547L21 16.25L18.696 18.554L19.5435 19.4015ZM17.25 20L18.0975 19.1525L18.945 20L18.0975 20.8475L17.25 20ZM19.5435 20.5985L21 22.055L22.4572 20.5977L23.3047 21.4449L21 23.75L18.696 21.446L18.6949 21.4449L19.5435 20.5985ZM23.055 20L23.9025 19.1525L24.75 20L23.9025 20.8475L23.055 20ZM21.8595 19.9992H21.8603V20L21 20.8603L20.1409 20.0015L20.1394 20L20.1409 19.9989L20.2912 19.8481L20.3644 19.775L21 19.1398L21.8595 19.9992Z" fill="white"/>
</g>
<defs>
<clipPath id="clip0_495_51">
<rect width="24" height="24" fill="white"/>
</clipPath>
<clipPath id="clip1_495_51">
<rect width="12" height="12" fill="white" transform="translate(15 14)"/>
</clipPath>
</defs>
</svg>
